<?xml version="1.0" encoding="utf-8"?>
<!-- Generator: Adobe Illustrator 26.0.1, SVG Export Plug-In . SVG Version: 6.00 Build 0)  -->
<svg version="1.1" id="Layer_1" xmlns="http://www.w3.org/2000/svg" xmlns:xlink="http://www.w3.org/1999/xlink" x="0px" y="0px"
	 viewBox="0 0 486.7 240.9" style="enable-background:new 0 0 486.7 240.9;" xml:space="preserve">
<g>
	<path d="M357.3,189l-79.8,0l-39.9-69.1l39.9-69.1l79.8,0l39.9,69.1L357.3,189z M290.6,104.3c-8.6,14.8-3.5,33.8,11.3,42.3
		c14.8,8.6,33.8,3.5,42.3-11.3c8.6-14.8,3.5-33.8-11.3-42.3C318.1,84.4,299.1,89.5,290.6,104.3 M133.4,96.9l15,8.6l-12.2,21.2
		l-15-8.6L90.6,171l44.9,25.9l24.4-42.3l53.7,31c11.7,6.8,26.6,2.7,33.4-8.9c6.7-11.7,2.7-26.6-8.9-33.4l-53.7-31l24.4-42.3
		L163.9,44L133.4,96.9z"/>
</g>
<g>
	<path d="M370.6,50.5c1.8,0,3.3,1.5,3.3,3.3c0,1.8-1.5,3.3-3.3,3.3c-1.8,0-3.3-1.5-3.3-3.3C367.3,52,368.7,50.5,370.6,50.5z
		 M370.6,56.8c1.7,0,3-1.3,3-3c0-1.7-1.3-3-3-3s-3,1.3-3,3C367.6,55.5,368.9,56.8,370.6,56.8z M371.7,55.6c-0.1-0.1-0.1-0.3-0.1-0.7
		c0-0.7-0.4-0.9-1.2-0.9h-0.8v1.6h-0.3V52h1.3c0.8,0,1.4,0.2,1.4,1c0,0.4-0.3,0.7-0.7,0.9c0.5,0.2,0.6,0.5,0.6,1.2
		c0,0.2,0.1,0.4,0.1,0.5H371.7z M370.8,52.3h-1.1v1.5h0.9c0.8,0,1.1-0.3,1.1-0.7C371.7,52.5,371.4,52.3,370.8,52.3z"/>
</g>
</svg>
